<?xml version='1.0' encoding='utf-8'?>
<svg xmlns="http://www.w3.org/2000/svg" width="1200" height="650" viewBox="0 0 1200 650" role="img" aria-labelledby="title desc">
  <title id="title">SuperTT Skills</title>
  <desc id="desc">两种真实技能：把信息做成可交互 HTML，以及通过地图、接口和数据流学习代码库；画板为流程示意。</desc>
  <defs>
    <clipPath id="canvas">
      <rect width="1200" height="650" rx="26" />
    </clipPath>
  </defs>
  <g clip-path="url(#canvas)">
    <rect x="0" y="0" width="1200" height="650" rx="0" fill="#F5EBD8" />
    <text x="49" y="43" font-family="Menlo, Consolas, monospace" font-size="18" font-weight="600" fill="#BE6945">SUPER TT / WORKFLOWS FOR CODING AGENTS</text>
    <text x="45" y="121" font-family="Georgia, Songti SC, serif" font-size="77" font-weight="500" fill="#312D26">SuperTT Skills</text>
    <text x="53" y="170" font-family="-apple-system, BlinkMacSystemFont, PingFang SC, Hiragino Sans, sans-serif" font-size="31" font-weight="400" fill="#80735E">让信息可操作，让代码可理解。</text>
    <g transform="rotate(-1.2 310 393)">
      <path d="M52 242 L73 234 L89 242 L107 231 L128 240 H574 V556 L554 551 L533 562 L513 552 H52 Z" fill="#FFFBED" stroke="#DBCCB4" stroke-width="1" stroke-linecap="round" stroke-linejoin="round" />
      <text x="77" y="277" font-family="Menlo, Consolas, monospace" font-size="23" font-weight="600" fill="#BE6945">TT_HTML</text>
      <text x="77" y="318" font-family="-apple-system, BlinkMacSystemFont, PingFang SC, Hiragino Sans, sans-serif" font-size="25" font-weight="500" fill="#312D26">把复杂信息，做成可用的 HTML。</text>
      <rect x="80" y="346" width="460" height="178" rx="3" fill="#EAE3CE" />
      <rect x="80" y="346" width="460" height="31" rx="3" fill="#D7DBC4" />
      <text x="97" y="368" font-family="Menlo, Consolas, monospace" font-size="16" font-weight="600" fill="#667E63">EXPLAIN · COMPARE · INTERACT</text>
      <path d="M114 493 H306 M114 397 V493" fill="none" stroke="#A6AC92" stroke-width="1" stroke-linecap="round" stroke-linejoin="round" />
      <rect x="128" y="400" width="112" height="18" rx="2" fill="#667E63" />
      <rect x="128" y="429" width="153" height="18" rx="2" fill="#BE6945" />
      <rect x="128" y="458" width="82" height="18" rx="2" fill="#C8AA75" />
      <text x="350" y="412" font-family="-apple-system, BlinkMacSystemFont, PingFang SC, Hiragino Sans, sans-serif" font-size="21" font-weight="400" fill="#312D26">比较</text>
      <text x="350" y="449" font-family="-apple-system, BlinkMacSystemFont, PingFang SC, Hiragino Sans, sans-serif" font-size="21" font-weight="400" fill="#312D26">复制</text>
      <text x="350" y="486" font-family="-apple-system, BlinkMacSystemFont, PingFang SC, Hiragino Sans, sans-serif" font-size="21" font-weight="400" fill="#312D26">导出</text>
    </g>
    <g transform="rotate(1.2 876 389)">
      <rect x="619" y="231" width="529" height="330" rx="4" fill="#DFD3BD" />
      <rect x="611" y="223" width="529" height="330" rx="4" fill="#FFFBED" />
      <text x="636" y="266" font-family="Menlo, Consolas, monospace" font-size="22" font-weight="600" fill="#667E63">TT_VIBE CODING TUTOR</text>
      <text x="636" y="309" font-family="-apple-system, BlinkMacSystemFont, PingFang SC, Hiragino Sans, sans-serif" font-size="25" font-weight="500" fill="#312D26">沿地图、接口与数据流读懂项目。</text>
      <text x="643" y="354" font-family="Menlo, Consolas, monospace" font-size="22" font-weight="400" fill="#80735E">repository/</text>
      <path d="M662 367 V476 M662 391 H697 M662 434 H697 M662 476 H697" fill="none" stroke="#B5B598" stroke-width="1.7" stroke-linecap="round" stroke-linejoin="round" />
      <text x="710" y="397" font-family="-apple-system, BlinkMacSystemFont, PingFang SC, Hiragino Sans, sans-serif" font-size="24" font-weight="400" fill="#312D26">界面与入口</text>
      <text x="710" y="440" font-family="-apple-system, BlinkMacSystemFont, PingFang SC, Hiragino Sans, sans-serif" font-size="24" font-weight="400" fill="#312D26">数据与契约</text>
      <text x="710" y="483" font-family="-apple-system, BlinkMacSystemFont, PingFang SC, Hiragino Sans, sans-serif" font-size="24" font-weight="400" fill="#312D26">练习与边界</text>
    </g>
    <rect x="228" y="218" width="122" height="31" rx="2" fill="#DCC89C" opacity=".78" transform="rotate(-4 289 233)" />
    <rect x="803" y="207" width="132" height="31" rx="2" fill="#D8B899" opacity=".75" transform="rotate(5 869 222)" />
    <text x="53" y="613" font-family="-apple-system, BlinkMacSystemFont, PingFang SC, Hiragino Sans, sans-serif" font-size="27" font-weight="400" fill="#312D26">两种技能，分别服务于表达与理解。</text>
    <g id="working-path">
      <path d="M352 495 H394" fill="none" stroke="#BE6945" stroke-width="3" stroke-linecap="round" stroke-linejoin="round" />
      <path d="M710 449 H834" fill="none" stroke="#667E63" stroke-width="3" stroke-linecap="round" stroke-linejoin="round" />
      <path d="M950 354 L950 492" fill="none" stroke="#667E63" stroke-width="2" stroke-linecap="round" stroke-linejoin="round" />
      <g transform="translate(950 492) rotate(90.0)">
        <path d="M-10 -5 L0 0 L-10 5" fill="none" stroke="#667E63" stroke-width="2" stroke-linecap="round" stroke-linejoin="round" />
      </g>
      <text x="978" y="431" font-family="-apple-system, BlinkMacSystemFont, PingFang SC, Hiragino Sans, sans-serif" font-size="20" font-weight="400" fill="#667E63">追踪</text>
    </g>
  </g>
</svg>